<svg width="80" height="80" viewBox="0 0 80 80" fill="none" xmlns="http://www.w3.org/2000/svg">
<rect width="80" height="80" rx="40" transform="matrix(1 0 0 -1 0 80)" fill="white"/>
<circle cx="24.2417" cy="24.2417" r="24.2417" transform="matrix(1 0 0 -1 15.5083 64.2416)" fill="white" stroke="#FFAA00" stroke-width="3.15183"/>
<path d="M24.9 46.1466C30.7995 43.3956 30.6537 39.9835 29.2131 36.8942C29.2131 36.8942 25.6298 39.4998 21.8288 41.2723C16.8064 43.6142 10.8013 45.0783 7.71309 46.5183C8.55653 48.3271 11.7952 47.4041 14.6721 47.3236C18.2049 47.2248 21.6484 47.6628 24.9 46.1466Z" fill="#FFAA00"/>
<path d="M29.2131 36.8942C26.7276 31.5639 21.9928 33.2794 18.0017 35.6329C15.1961 37.2873 13.5227 38.9694 11.6791 40.9053C10.2106 42.4474 6.86964 44.7096 7.71309 46.5183C10.8013 45.0783 16.8064 43.6142 21.8288 41.2723C25.6298 39.4998 29.2131 36.8942 29.2131 36.8942Z" fill="white"/>
<path d="M7.71309 46.5183C8.55653 48.3271 11.7952 47.4041 14.6721 47.3236C18.2049 47.2248 21.6484 47.6628 24.9 46.1466C30.7995 43.3956 30.6537 39.9835 29.2131 36.8942M7.71309 46.5183C6.86964 44.7096 10.2106 42.4474 11.6791 40.9053C13.5227 38.9694 15.1961 37.2873 18.0017 35.6329C21.9928 33.2794 26.7276 31.5639 29.2131 36.8942M7.71309 46.5183C10.8013 45.0783 16.8064 43.6142 21.8288 41.2723C25.6298 39.4998 29.2131 36.8942 29.2131 36.8942" stroke="#FFAA00" stroke-width="1.57592"/>
<path d="M54.5999 46.1466C48.7004 43.3956 48.8462 39.9835 50.2868 36.8942C50.2868 36.8942 53.8701 39.4998 57.6711 41.2723C62.6935 43.6142 68.6986 45.0783 71.7868 46.5183C70.9434 48.3271 67.7047 47.4041 64.8278 47.3236C61.295 47.2248 57.8515 47.6628 54.5999 46.1466Z" fill="#FFAA00"/>
<path d="M50.2868 36.8942C52.7723 31.5639 57.5072 33.2794 61.4982 35.6329C64.3038 37.2873 65.9772 38.9694 67.8208 40.9053C69.2894 42.4474 72.6303 44.7096 71.7868 46.5183C68.6986 45.0783 62.6935 43.6142 57.6711 41.2723C53.8701 39.4998 50.2868 36.8942 50.2868 36.8942Z" fill="white"/>
<path d="M71.7868 46.5183C70.9434 48.3271 67.7047 47.4041 64.8278 47.3236C61.295 47.2248 57.8515 47.6628 54.5999 46.1466C48.7004 43.3956 48.8462 39.9835 50.2868 36.8942M71.7868 46.5183C72.6303 44.7096 69.2894 42.4474 67.8208 40.9053C65.9772 38.9694 64.3038 37.2873 61.4982 35.6329C57.5072 33.2794 52.7723 31.5639 50.2868 36.8942M71.7868 46.5183C68.6986 45.0783 62.6935 43.6142 57.6711 41.2723C53.8701 39.4998 50.2868 36.8942 50.2868 36.8942" stroke="#FFAA00" stroke-width="1.57592"/>
<path d="M55.3744 39.2011C55.3744 30.309 46.8977 25.5937 39.7494 25.5937C32.6011 25.5938 24.1244 30.1259 24.1244 39.2011C24.1244 48.2763 32.3452 52.306 39.7494 52.306C47.1535 52.306 55.3744 48.0932 55.3744 39.2011Z" fill="#FFAA00"/>
<path d="M42.2518 31.6483C40.1736 30.8424 39.1111 30.8459 37.1733 31.6483" stroke="white" stroke-width="1.5994" stroke-linecap="round"/>
<path d="M49.1831 39.6294C48.9541 40.8077 47.135 41.446 45.1206 41.0551C43.106 40.6642 41.6585 39.3919 41.8872 38.2133C42.1159 37.0348 43.934 36.3967 45.9487 36.7876C47.9634 37.1784 49.4117 38.4508 49.1831 39.6294ZM34.3852 41.1206C32.3707 41.5113 30.5525 40.8732 30.3237 39.6948C30.095 38.5163 31.5426 37.244 33.5571 36.853C35.5716 36.4621 37.3907 37.1004 37.6196 38.2788C37.8482 39.4573 36.3999 40.7297 34.3852 41.1206Z" fill="white"/>
</svg>
