<svg width="80" height="80" viewBox="0 0 80 80" fill="none" xmlns="http://www.w3.org/2000/svg">
<rect width="80" height="80" rx="40" fill="white"/>
<circle cx="39.75" cy="40.0001" r="24.2417" fill="white" stroke="#FFAA00" stroke-width="3.15183"/>
<path d="M24.9 33.8534C30.7995 36.6044 30.6537 40.0165 29.2131 43.1058C29.2131 43.1058 25.6298 40.5002 21.8288 38.7277C16.8064 36.3858 10.8013 34.9217 7.71309 33.4817C8.55653 31.6729 11.7952 32.5959 14.6721 32.6764C18.2049 32.7752 21.6484 32.3372 24.9 33.8534Z" fill="#FFAA00"/>
<path d="M29.2131 43.1058C26.7276 48.4361 21.9927 46.7206 18.0017 44.3671C15.1961 42.7127 13.5227 41.0306 11.6791 39.0947C10.2105 37.5526 6.86964 35.2904 7.71309 33.4817C10.8013 34.9217 16.8064 36.3858 21.8288 38.7277C25.6298 40.5002 29.2131 43.1058 29.2131 43.1058Z" fill="white"/>
<path d="M7.71309 33.4817C8.55653 31.6729 11.7952 32.5959 14.6721 32.6764C18.2049 32.7752 21.6484 32.3372 24.9 33.8534C30.7995 36.6044 30.6537 40.0165 29.2131 43.1058M7.71309 33.4817C6.86964 35.2904 10.2105 37.5526 11.6791 39.0947C13.5227 41.0306 15.1961 42.7127 18.0017 44.3671C21.9927 46.7206 26.7276 48.4361 29.2131 43.1058M7.71309 33.4817C10.8013 34.9217 16.8064 36.3858 21.8288 38.7277C25.6298 40.5002 29.2131 43.1058 29.2131 43.1058" stroke="#FFAA00" stroke-width="1.57592"/>
<path d="M54.5999 33.8534C48.7004 36.6044 48.8462 40.0165 50.2868 43.1058C50.2868 43.1058 53.8701 40.5002 57.6711 38.7277C62.6935 36.3858 68.6987 34.9217 71.7868 33.4817C70.9434 31.6729 67.7047 32.5959 64.8278 32.6764C61.295 32.7752 57.8515 32.3372 54.5999 33.8534Z" fill="#FFAA00"/>
<path d="M50.2868 43.1058C52.7724 48.4361 57.5072 46.7206 61.4982 44.3671C64.3038 42.7127 65.9772 41.0306 67.8208 39.0947C69.2894 37.5526 72.6303 35.2904 71.7868 33.4817C68.6987 34.9217 62.6935 36.3858 57.6711 38.7277C53.8701 40.5002 50.2868 43.1058 50.2868 43.1058Z" fill="white"/>
<path d="M71.7868 33.4817C70.9434 31.6729 67.7047 32.5959 64.8278 32.6764C61.295 32.7752 57.8515 32.3372 54.5999 33.8534C48.7004 36.6044 48.8462 40.0165 50.2868 43.1058M71.7868 33.4817C72.6303 35.2904 69.2894 37.5526 67.8208 39.0947C65.9772 41.0306 64.3038 42.7127 61.4982 44.3671C57.5072 46.7206 52.7724 48.4361 50.2868 43.1058M71.7868 33.4817C68.6987 34.9217 62.6935 36.3858 57.6711 38.7277C53.8701 40.5002 50.2868 43.1058 50.2868 43.1058" stroke="#FFAA00" stroke-width="1.57592"/>
<path d="M55.3744 40.7989C55.3744 49.691 46.8977 54.4063 39.7494 54.4063C32.6011 54.4062 24.1244 49.8741 24.1244 40.7989C24.1244 31.7237 32.3452 27.694 39.7494 27.694C47.1535 27.694 55.3744 31.9068 55.3744 40.7989Z" fill="#FFAA00"/>
<path d="M42.2518 48.3517C40.1736 49.1576 39.1111 49.1541 37.1733 48.3517" stroke="white" stroke-width="1.5994" stroke-linecap="round"/>
<path d="M49.1831 40.3706C48.9541 39.1923 47.135 38.554 45.1206 38.9449C43.106 39.3358 41.6585 40.6081 41.8872 41.7867C42.1159 42.9652 43.934 43.6033 45.9487 43.2124C47.9634 42.8216 49.4117 41.5492 49.1831 40.3706ZM34.3852 38.8794C32.3707 38.4887 30.5525 39.1268 30.3237 40.3052C30.095 41.4837 31.5426 42.756 33.5571 43.147C35.5716 43.5379 37.3907 42.8996 37.6196 41.7212C37.8482 40.5427 36.3999 39.2703 34.3852 38.8794Z" fill="white"/>
</svg>
