<svg xmlns="http://www.w3.org/2000/svg" viewBox="0 0 342.3 116.67">
  <defs>
    <style>
      .cls-1, .cls-2 {
        fill: none;
        stroke: #1d2021;
        stroke-linecap: round;
        stroke-miterlimit: 10;
      }

      .cls-1 {
        stroke-width: 5px;
      }

      .cls-2 {
        stroke-width: 4px;
      }

      .cls-3 {
        fill: #1d2021;
      }
    </style>
  </defs>
  <g id="Layer_2">
    <g id="Layer_3">
      <g>
        <path class="cls-1" d="M173.52,2.5s-16.11.31-21.06,2.79c-4.14,2.07-18.66,23.17-23.33,30.05a3,3,0,0,1-3.69,1c-4-1.79-12.74-4.63-19.59.26a2.93,2.93,0,0,1-2.55.43L6.33,8.74a3,3,0,0,0-2.87,5C23.85,32.86,73.21,77.67,89.28,79.62c10.76,1.3,17.23.38,20.94-.79"/>
        <path class="cls-2" d="M171.52,96s-1.89.51-11.25-5.18"/>
        <path id="Smile" class="cls-2" d="M157.34,111.11a30.16,30.16,0,0,0,14.18,3.56"/>
        <path class="cls-1" d="M168.78,2.5s16.1.31,21.06,2.79C194,7.36,208.5,28.46,213.16,35.34a3,3,0,0,0,3.69,1c4-1.79,12.75-4.63,19.6.26a2.93,2.93,0,0,0,2.55.43L336,8.74a3,3,0,0,1,2.87,5C318.45,32.86,269.09,77.67,253,79.62c-10.76,1.3-17.23.38-20.94-.79"/>
        <path class="cls-2" d="M170.78,96s1.89.51,11.25-5.18"/>
        <path id="Smile-2" class="cls-2" d="M185,111.11a30.09,30.09,0,0,1-14.17,3.56"/>
      </g>
      <path class="cls-3" d="M138.67,48.67a51.09,51.09,0,0,1,5.93.3c2,.23,4,.44,6,.71a47.5,47.5,0,0,1,7.48,1.54,10.92,10.92,0,0,1,2.2.93,16.82,16.82,0,0,0,4.61,1.93,6.15,6.15,0,0,0,1.35.16c2.83,0,5.66,0,8.48,0a8.79,8.79,0,0,0,3.56-.68,22.08,22.08,0,0,0,2.56-1.2,15.49,15.49,0,0,1,3.94-1.53,58.43,58.43,0,0,1,6.31-1.18c1.74-.24,3.47-.46,5.21-.65,1-.11,2-.19,3-.22,1.66-.06,3.32-.12,5-.09,2.28,0,4.55.16,6.82.26.71,0,1.43.06,2.14.1,1.53.07,3,.13,4.58.23s3.33.23,5,.35c1.23.1,2.46.2,3.69.32.6.06,1.19.14,1.78.25.41.07.41.11.38.52,0,.23,0,.46,0,.68,0,1.2-.11,2.4-.16,3.6,0,.42,0,.85,0,1.27a.53.53,0,0,1-.33.54,6,6,0,0,0-3.26,4.58c-.28,1.37-.44,2.76-.69,4.14a55,55,0,0,1-3.15,11,23.13,23.13,0,0,1-2.34,4.32,11.09,11.09,0,0,1-3.82,3.48,24.54,24.54,0,0,1-8.42,2.8,27.5,27.5,0,0,1-5.59.26A31.2,31.2,0,0,1,192.93,86c-.76-.24-1.51-.51-2.26-.76a20.37,20.37,0,0,1-5.91-3.45,19.89,19.89,0,0,1-3.6-3.9A31.44,31.44,0,0,1,175.52,66c-.1-.44-.16-.9-.26-1.34a6.46,6.46,0,0,0-1.7-3.18,4.06,4.06,0,0,0-6,.4,7.38,7.38,0,0,0-1.4,3.34,26.31,26.31,0,0,1-1.89,6.08,34,34,0,0,1-5.76,8.88,19.72,19.72,0,0,1-3,2.61,22.73,22.73,0,0,1-7.76,3.52,30.74,30.74,0,0,1-10.18,1.16,24.63,24.63,0,0,1-11.05-3.18,11.11,11.11,0,0,1-4-4,34.69,34.69,0,0,1-3.44-8,71,71,0,0,1-2-9c-.12-.7-.17-1.42-.33-2.11A6.48,6.48,0,0,0,113.89,57c-.69-.18-.71-.73-.74-1.29s-.06-1.2-.09-1.8c0-1-.09-2-.13-3.07,0-.52,0-.61.55-.67.9-.12,1.8-.24,2.71-.32,2-.17,4-.32,6-.47,1.25-.09,2.5-.15,3.75-.21,1.7-.1,3.41-.19,5.11-.27.81-.05,1.62-.09,2.43-.11l5.22-.14Z"/>
    </g>
  </g>
</svg>
