<svg id="vector" xmlns="http://www.w3.org/2000/svg" width="40" height="40" viewBox="0 0 70 50" preserveAspectRatio="xMidYMid meet"><g transform="translation(0, 27.501972)" id="g_0"><path fill="#ffffff" d="M35.25,26m-24.242,0a24.242,24.242 0,1 1,48.483 0a24.242,24.242 0,1 1,-48.483 0" stroke-width="3.15183" stroke="#FF6D3B"></path><path fill="#FF6D3B" d="M20.4,19.853C26.299,22.604 26.154,26.017 24.713,29.106C24.713,29.106 21.13,26.5 17.329,24.728C12.306,22.386 6.301,20.922 3.213,19.482C4.057,17.673 7.295,18.596 10.172,18.676C13.705,18.775 17.148,18.337 20.4,19.853Z"></path><path fill="#ffffff" d="M24.713,29.106C22.228,34.436 17.493,32.721 13.502,30.367C10.696,28.713 9.023,27.031 7.179,25.095C5.711,23.553 2.37,21.29 3.213,19.482C6.301,20.922 12.306,22.386 17.329,24.728C21.13,26.5 24.713,29.106 24.713,29.106Z"></path><path fill="#FF6D3B" d="M13.502,30.367L13.902,29.688L13.502,30.367ZM10.172,18.676L10.15,19.464L10.172,18.676ZM7.179,25.095L6.609,25.638L7.179,25.095ZM13.902,29.688C15.884,30.857 17.916,31.78 19.694,31.83C20.56,31.855 21.347,31.672 22.047,31.22C22.75,30.767 23.425,30.004 23.999,28.773L25.427,29.439C24.758,30.873 23.909,31.895 22.901,32.545C21.889,33.197 20.777,33.438 19.649,33.405C17.441,33.343 15.11,32.23 13.101,31.046L13.902,29.688ZM23.999,28.773C24.685,27.301 24.989,25.902 24.561,24.599C24.135,23.305 22.915,21.896 20.067,20.567L20.733,19.139C23.784,20.562 25.441,22.234 26.058,24.106C26.671,25.97 26.181,27.821 25.427,29.439L23.999,28.773ZM20.067,20.567C18.567,19.868 17.005,19.61 15.349,19.52C14.519,19.475 13.676,19.473 12.807,19.477C11.943,19.48 11.049,19.489 10.15,19.464L10.194,17.889C11.061,17.913 11.923,17.904 12.8,17.901C13.671,17.897 14.555,17.899 15.434,17.947C17.196,18.042 18.981,18.322 20.733,19.139L20.067,20.567ZM10.15,19.464C9.399,19.443 8.629,19.367 7.914,19.298C7.186,19.228 6.519,19.165 5.921,19.158C4.638,19.144 4.123,19.395 3.927,19.815L2.499,19.149C3.147,17.76 4.673,17.568 5.939,17.583C6.616,17.59 7.351,17.661 8.065,17.729C8.793,17.8 9.507,17.869 10.194,17.889L10.15,19.464ZM3.927,19.815C3.842,19.996 3.832,20.228 3.991,20.585C4.156,20.958 4.471,21.383 4.907,21.852C5.337,22.316 5.841,22.778 6.349,23.236C6.844,23.683 7.357,24.139 7.75,24.551L6.609,25.638C6.267,25.28 5.812,24.874 5.293,24.406C4.788,23.95 4.235,23.445 3.751,22.924C3.274,22.409 2.82,21.833 2.55,21.224C2.273,20.6 2.162,19.871 2.499,19.149L3.927,19.815ZM7.75,24.551C9.581,26.474 11.193,28.091 13.902,29.688L13.101,31.046C10.199,29.334 8.465,27.587 6.609,25.638L7.75,24.551ZM3.546,18.767C5.037,19.463 7.25,20.17 9.795,21.019C12.31,21.858 15.105,22.822 17.662,24.014L16.996,25.442C14.53,24.292 11.811,23.353 9.296,22.514C6.811,21.685 4.477,20.94 2.88,20.196L3.546,18.767ZM17.662,24.014C19.605,24.92 21.483,26.034 22.869,26.917C23.564,27.359 24.139,27.745 24.54,28.022C24.741,28.16 24.899,28.271 25.007,28.347C25.062,28.386 25.103,28.416 25.132,28.436C25.146,28.446 25.157,28.454 25.164,28.46C25.168,28.462 25.171,28.464 25.173,28.466C25.174,28.467 25.175,28.467 25.175,28.468C25.176,28.468 25.176,28.468 25.176,28.468C25.176,28.468 25.176,28.468 25.176,28.468C25.176,28.468 25.177,28.469 24.713,29.106C24.25,29.743 24.25,29.743 24.25,29.743C24.25,29.743 24.25,29.743 24.25,29.743C24.25,29.743 24.25,29.743 24.25,29.743C24.249,29.743 24.249,29.742 24.248,29.742C24.247,29.741 24.244,29.739 24.241,29.737C24.235,29.732 24.225,29.725 24.212,29.716C24.186,29.697 24.147,29.67 24.096,29.633C23.993,29.56 23.842,29.454 23.647,29.32C23.258,29.052 22.699,28.677 22.023,28.246C20.667,27.383 18.853,26.308 16.996,25.442L17.662,24.014Z"></path><path fill="#FF6D3B" d="M50.1,19.853C44.2,22.604 44.346,26.017 45.787,29.106C45.787,29.106 49.37,26.5 53.171,24.728C58.194,22.386 64.199,20.922 67.287,19.482C66.443,17.673 63.205,18.596 60.328,18.676C56.795,18.775 53.352,18.337 50.1,19.853Z"></path><path fill="#ffffff" d="M45.787,29.106C48.272,34.436 53.007,32.721 56.998,30.367C59.804,28.713 61.477,27.031 63.321,25.095C64.789,23.553 68.13,21.29 67.287,19.482C64.199,20.922 58.194,22.386 53.171,24.728C49.37,26.5 45.787,29.106 45.787,29.106Z"></path><path fill="#FF6D3B" d="M56.998,30.367L56.598,29.688L56.998,30.367ZM60.328,18.676L60.35,19.464L60.328,18.676ZM63.321,25.095L63.891,25.638L63.321,25.095ZM56.598,29.688C54.616,30.857 52.584,31.78 50.806,31.83C49.939,31.855 49.153,31.672 48.453,31.22C47.749,30.767 47.075,30.004 46.501,28.773L45.073,29.439C45.741,30.873 46.591,31.895 47.599,32.545C48.611,33.197 49.723,33.438 50.85,33.405C53.059,33.343 55.39,32.23 57.398,31.046L56.598,29.688ZM46.501,28.773C45.815,27.301 45.511,25.902 45.939,24.599C46.365,23.305 47.585,21.896 50.433,20.567L49.767,19.139C46.716,20.562 45.058,22.234 44.442,24.106C43.829,25.97 44.319,27.821 45.073,29.439L46.501,28.773ZM50.433,20.567C51.932,19.868 53.495,19.61 55.151,19.52C55.98,19.475 56.824,19.473 57.693,19.477C58.557,19.48 59.451,19.489 60.35,19.464L60.306,17.889C59.439,17.913 58.577,17.904 57.7,17.901C56.829,17.897 55.945,17.899 55.066,17.947C53.304,18.042 51.519,18.322 49.767,19.139L50.433,20.567ZM60.35,19.464C61.101,19.443 61.871,19.367 62.586,19.298C63.314,19.228 63.981,19.165 64.579,19.158C65.862,19.144 66.377,19.395 66.573,19.815L68.001,19.149C67.353,17.76 65.827,17.568 64.561,17.583C63.884,17.59 63.149,17.661 62.435,17.729C61.707,17.8 60.993,17.869 60.306,17.889L60.35,19.464ZM66.573,19.815C66.657,19.996 66.668,20.228 66.509,20.585C66.344,20.958 66.029,21.383 65.593,21.852C65.163,22.316 64.659,22.778 64.151,23.236C63.656,23.683 63.143,24.139 62.75,24.551L63.891,25.638C64.233,25.28 64.688,24.874 65.207,24.406C65.712,23.95 66.265,23.445 66.748,22.924C67.226,22.409 67.68,21.833 67.95,21.224C68.227,20.6 68.338,19.871 68.001,19.149L66.573,19.815ZM62.75,24.551C60.919,26.474 59.307,28.091 56.598,29.688L57.398,31.046C60.301,29.334 62.035,27.587 63.891,25.638L62.75,24.551ZM66.954,18.767C65.463,19.463 63.25,20.17 60.705,21.019C58.19,21.858 55.395,22.822 52.838,24.014L53.504,25.442C55.97,24.292 58.688,23.353 61.204,22.514C63.689,21.685 66.023,20.94 67.62,20.196L66.954,18.767ZM52.838,24.014C50.895,24.92 49.016,26.034 47.63,26.917C46.936,27.359 46.361,27.745 45.959,28.022C45.759,28.16 45.601,28.271 45.493,28.347C45.438,28.386 45.397,28.416 45.368,28.436C45.354,28.446 45.343,28.454 45.336,28.46C45.332,28.462 45.329,28.464 45.327,28.466C45.326,28.467 45.325,28.467 45.325,28.468C45.324,28.468 45.324,28.468 45.324,28.468C45.324,28.468 45.324,28.468 45.324,28.468C45.324,28.468 45.323,28.469 45.787,29.106C46.25,29.743 46.25,29.743 46.25,29.743C46.25,29.743 46.25,29.743 46.25,29.743C46.25,29.743 46.25,29.743 46.25,29.743C46.251,29.743 46.251,29.742 46.252,29.742C46.253,29.741 46.256,29.739 46.259,29.737C46.265,29.732 46.275,29.725 46.288,29.716C46.313,29.697 46.353,29.67 46.404,29.633C46.507,29.56 46.658,29.454 46.853,29.32C47.242,29.052 47.8,28.677 48.477,28.246C49.833,27.383 51.647,26.308 53.504,25.442L52.838,24.014Z"></path><path fill="#FF6D3B" d="M50.874,26.799C50.874,35.691 42.398,40.406 35.249,40.406C28.101,40.406 19.624,35.874 19.624,26.799C19.624,17.724 27.845,13.694 35.249,13.694C42.653,13.694 50.874,17.907 50.874,26.799Z"></path><path fill="#00000000" d="M37.752,34.352C35.674,35.158 34.611,35.154 32.673,34.352" stroke-width="1.5994" stroke="#ffffff" stroke-linecap="round"></path><path fill="#ffffff" d="M29.057,29.147C31.072,29.538 32.891,28.899 33.119,27.721C33.348,26.542 31.9,25.27 29.885,24.879C27.871,24.488 26.052,25.127 25.823,26.305C25.595,27.484 27.043,28.756 29.057,29.147ZM40.621,24.945C42.636,24.554 44.454,25.192 44.683,26.371C44.911,27.55 43.464,28.822 41.449,29.213C39.434,29.604 37.616,28.965 37.387,27.787C37.158,26.608 38.606,25.336 40.621,24.945Z" fill-rule="evenodd"></path></g></svg>